<?xml version="1.0" encoding="UTF-8"?>
<!-- Created with Inkscape (http://www.inkscape.org/) -->
<svg width="5.2917mm" height="5.1635mm" version="1.1" viewBox="0 0 5.2917 5.1635" xmlns="http://www.w3.org/2000/svg">
 <g transform="translate(-111.65 -139.44)">
  <path d="m114.3 139.44a2.6458 2.6458 0 0 0-2.6458 2.6458c0 1.1695 0.75935 2.1616 1.8098 2.5135 0.13229 0.0212 0.17462-0.0608 0.17462-0.13229v-0.44715c-0.73289 0.15875-0.889-0.35454-0.889-0.35454-0.12171-0.30691-0.29369-0.38894-0.29369-0.38894-0.24077-0.16404 0.0185-0.15875 0.0185-0.15875 0.26459 0.0185 0.40482 0.27253 0.40482 0.27253 0.23018 0.40216 0.61912 0.2831 0.76993 0.2196 0.0238-0.17198 0.0926-0.2884 0.16669-0.35454-0.58737-0.0661-1.2038-0.29369-1.2038-1.3018 0-0.29369 0.10054-0.52917 0.27252-0.71702-0.0265-0.0662-0.11906-0.34132 0.0265-0.6985 0 0 0.22225-0.0714 0.7276 0.26987 0.20902-0.0582 0.43656-0.0873 0.66146-0.0873s0.45244 0.0291 0.66146 0.0873c0.50535-0.34131 0.7276-0.26987 0.7276-0.26987 0.14552 0.35719 0.0529 0.63235 0.0265 0.6985 0.17198 0.18785 0.27252 0.42333 0.27252 0.71702 0 1.0107-0.61912 1.233-1.2091 1.2991 0.0953 0.082 0.18256 0.24342 0.18256 0.48948v0.72496c0 0.0714 0.0423 0.1561 0.17727 0.13229 1.0504-0.35454 1.8071-1.3441 1.8071-2.5135a2.6458 2.6458 0 0 0-2.6459-2.6458z" stroke-width=".26458"/>
 </g>
</svg>
